<?xml version="1.0" encoding="UTF-8" standalone="no"?>
<svg
   version="1.1"
   width="489.69815"
   height="489.69815"
   id="svg22"
   sodipodi:docname="multipass-exporter-logo.svg"
   xmlns:inkscape="http://www.inkscape.org/namespaces/inkscape"
   xmlns:sodipodi="http://sodipodi.sourceforge.net/DTD/sodipodi-0.dtd"
   xmlns="http://www.w3.org/2000/svg"
   xmlns:svg="http://www.w3.org/2000/svg">
  <defs
     id="defs26" />
  <sodipodi:namedview
     id="namedview24"
     pagecolor="#ffffff"
     bordercolor="#000000"
     borderopacity="0.25"
     inkscape:showpageshadow="2"
     inkscape:pageopacity="0.0"
     inkscape:pagecheckerboard="0"
     inkscape:deskcolor="#d1d1d1"
     showgrid="false" />
  <path
     d="M 9.0505981e-8,0 C 161.60038,0 323.20078,0 489.69815,0 c 0,161.60038 0,323.20078 0,489.69815 -161.6004,0 -323.20078,0 -489.69814990949402,0 0,-161.6004 0,-323.20078 3e-15,-489.69815 z"
     fill="#f8f9f8"
     id="path2"
     style="fill:none;stroke-width:0.98929"
     inkscape:export-filename="../home/jose/desarrollo/multipass-exporter/logo.svg"
     inkscape:export-xdpi="96"
     inkscape:export-ydpi="96" />
  <path
     d="m 234.67024,7.5216633 c 6.39705,0.6116692 11.1703,3.9495367 16.4994,7.2657937 0.97096,0.600013 1.9419,1.200026 2.94227,1.818222 7.80115,4.902453 14.83047,10.228245 21.73116,16.346259 1.54071,1.28081 1.54071,1.28081 3.11256,2.587493 20.15134,17.162541 34.45556,43.473335 36.8493,70.070429 0.91757,15.74682 -0.28279,30.30009 -4.9432,45.42539 -2.01232,7.64681 -2.9571,17.29443 0.70482,24.58355 0.59943,0.87416 1.19886,1.74833 1.81644,2.64899 2.79734,0 5.59467,0 8.47676,0 3.61961,-7.06593 4.13748,-12.87195 4.23838,-20.73779 0.77651,-23.44558 7.37739,-37.36929 23.61383,-54.34207 0.79924,0.39962 1.59848,0.79923 2.42193,1.21096 -0.39962,1.12394 -0.79923,2.24786 -1.21096,3.40584 -7.04917,25.25529 10.30344,50.88672 22.02443,71.97677 15.33076,27.72102 27.02937,59.22756 18.31586,91.20083 -0.88633,2.61497 -1.8198,5.21447 -2.80036,7.79558 -0.76334,2.13547 -0.76334,2.13547 -1.54209,4.31407 -2.28112,6.19357 -4.60689,11.89311 -8.14564,17.48332 13.98913,-6.44408 21.16458,-16.72157 27.8522,-30.27414 3.3984,3.39839 3.85607,7.34155 4.91955,11.88259 0.20996,0.86246 0.41991,1.72492 0.63624,2.61352 0.58685,2.43061 1.16352,4.86126 1.71001,7.30127 0.21815,0.94489 0.43631,1.88979 0.66107,2.86333 6.75239,39.18928 -5.45222,83.67629 -28.13486,115.88697 -23.21886,31.96218 -54.74869,53.90598 -92.41179,65.31644 -0.79417,0.2564 -1.58833,0.51279 -2.40655,0.77696 -14.35574,4.48218 -28.93674,4.54241 -43.8372,4.59671 -1.46847,0.0114 -1.46847,0.0114 -2.96662,0.0229 -45.61906,0.22314 -85.46785,-18.15382 -117.90287,-49.74825 -19.47006,-19.66392 -34.000034,-45.19924 -41.172818,-71.90108 -0.210999,-0.78173 -0.422008,-1.56348 -0.639399,-2.36891 -3.509242,-13.36269 -4.949227,-25.99835 -4.769434,-39.80201 0.03537,-2.95413 0.02482,-5.90566 0.0088,-8.85991 0.01966,-15.71808 2.420321,-30.023 7.821607,-44.86249 0.299715,-0.87494 0.599429,-1.74989 0.908228,-2.65135 1.550427,-4.34847 2.953858,-7.34401 6.357567,-10.44221 0.07645,1.46423 0.152972,2.92846 0.23178,4.43706 0.973537,14.16046 3.192009,26.48628 12.521189,37.76698 1.89566,1.72855 1.89566,1.72855 5.48719,1.84483 1.17388,-0.14986 2.34777,-0.29972 3.55721,-0.45412 2.8761,-4.31413 2.78323,-6.30601 2.80036,-11.42848 0.0203,-1.37213 0.0405,-2.74426 0.0615,-4.15797 -0.18364,-4.14025 -1.1424,-7.84111 -2.24218,-11.83055 -2.09795,-7.9937 -2.48319,-15.58407 -2.43612,-23.82196 0.008,-1.43653 0.0156,-2.87304 0.0236,-4.3531 0.23369,-11.22616 1.70715,-20.18133 6.63665,-30.38648 0.35688,-0.74753 0.71377,-1.49506 1.08147,-2.26524 4.58638,-9.4661 9.99778,-18.22507 15.92881,-26.91146 11.0445,-16.43421 16.48347,-29.68397 14.47482,-49.53605 -0.66602,-3.28978 -1.50874,-6.45336 -2.42193,-9.68773 12.50622,4.23562 21.87837,16.28565 28.07926,27.54947 4.87039,10.36986 6.39195,21.66872 7.03874,32.9988 0.44021,-1.11456 0.88041,-2.22911 1.33396,-3.37746 1.6235,-4.09973 3.27412,-8.18818 4.92782,-12.2758 0.9155,-2.28983 1.79879,-4.59246 2.67855,-6.89624 5.95126,-14.98017 14.97353,-26.57111 25.57219,-38.52856 16.76364,-18.93502 29.25301,-39.241356 28.75097,-65.264414 -0.87517,-13.254562 -4.90569,-24.626924 -10.43985,-36.537098 -1.5766,-3.400135 -3.03672,-6.793627 -4.38502,-10.2884767 z"
     fill="#ea5723"
     id="path4"
     style="stroke-width:1.21096" />
  <path
     d="m 234.67024,7.5216633 c 6.39705,0.6116692 11.1703,3.9495367 16.4994,7.2657937 0.97096,0.600013 1.9419,1.200026 2.94227,1.818222 7.80115,4.902453 14.83047,10.228245 21.73116,16.346259 1.54071,1.28081 1.54071,1.28081 3.11256,2.587493 20.15134,17.162541 34.45556,43.473335 36.8493,70.070429 0.91757,15.74682 -0.28279,30.30009 -4.9432,45.42539 -2.01232,7.64681 -2.9571,17.29443 0.70482,24.58355 0.59943,0.87416 1.19886,1.74833 1.81644,2.64899 2.79734,0 5.59467,0 8.47676,0 3.61961,-7.06593 4.13748,-12.87195 4.23838,-20.73779 0.77651,-23.44558 7.37739,-37.36929 23.61383,-54.34207 0.79924,0.39962 1.59848,0.79923 2.42193,1.21096 -0.39962,1.12394 -0.79923,2.24786 -1.21096,3.40584 -7.04917,25.25529 10.30344,50.88672 22.02443,71.97677 15.33076,27.72102 27.02937,59.22756 18.31586,91.20083 -0.88633,2.61497 -1.8198,5.21447 -2.80036,7.79558 -0.76334,2.13547 -0.76334,2.13547 -1.54209,4.31407 -2.28112,6.19357 -4.60689,11.89311 -8.14564,17.48332 13.98913,-6.44408 21.16458,-16.72157 27.8522,-30.27414 3.3984,3.39839 3.85607,7.34155 4.91955,11.88259 0.20996,0.86246 0.41991,1.72492 0.63624,2.61352 0.58685,2.43061 1.16352,4.86126 1.71001,7.30127 0.21815,0.94489 0.43631,1.88979 0.66107,2.86333 6.75239,39.18928 -5.45222,83.67629 -28.13486,115.88697 -23.21886,31.96218 -54.74869,53.90598 -92.41179,65.31644 -0.79417,0.2564 -1.58833,0.51279 -2.40655,0.77696 -14.35574,4.48218 -28.93674,4.54241 -43.8372,4.59671 -1.46847,0.0114 -1.46847,0.0114 -2.96662,0.0229 -45.61906,0.22314 -85.46785,-18.15382 -117.90287,-49.74825 -19.47006,-19.66392 -34.000034,-45.19924 -41.172818,-71.90108 -0.210999,-0.78173 -0.422008,-1.56348 -0.639399,-2.36891 -3.509242,-13.36269 -4.949227,-25.99835 -4.769434,-39.80201 0.03537,-2.95413 0.02482,-5.90566 0.0088,-8.85991 0.01966,-15.71808 2.420321,-30.023 7.821607,-44.86249 0.299715,-0.87494 0.599429,-1.74989 0.908228,-2.65135 1.550427,-4.34847 2.953858,-7.34401 6.357567,-10.44221 0.07645,1.46423 0.152972,2.92846 0.23178,4.43706 0.973537,14.16046 3.192009,26.48628 12.521189,37.76698 1.89566,1.72855 1.89566,1.72855 5.48719,1.84483 1.17388,-0.14986 2.34777,-0.29972 3.55721,-0.45412 2.8761,-4.31413 2.78323,-6.30601 2.80036,-11.42848 0.0203,-1.37213 0.0405,-2.74426 0.0615,-4.15797 -0.18364,-4.14025 -1.1424,-7.84111 -2.24218,-11.83055 -2.09795,-7.9937 -2.48319,-15.58407 -2.43612,-23.82196 0.008,-1.43653 0.0156,-2.87304 0.0236,-4.3531 0.23369,-11.22616 1.70715,-20.18133 6.63665,-30.38648 0.35688,-0.74753 0.71377,-1.49506 1.08147,-2.26524 4.58638,-9.4661 9.99778,-18.22507 15.92881,-26.91146 11.0445,-16.43421 16.48347,-29.68397 14.47482,-49.53605 -0.66602,-3.28978 -1.50874,-6.45336 -2.42193,-9.68773 12.50622,4.23562 21.87837,16.28565 28.07926,27.54947 4.87039,10.36986 6.39195,21.66872 7.03874,32.9988 0.44021,-1.11456 0.88041,-2.22911 1.33396,-3.37746 1.6235,-4.09973 3.27412,-8.18818 4.92782,-12.2758 0.9155,-2.28983 1.79879,-4.59246 2.67855,-6.89624 5.95126,-14.98017 14.97353,-26.57111 25.57219,-38.52856 16.76364,-18.93502 29.25301,-39.241356 28.75097,-65.264414 -0.87517,-13.254562 -4.90569,-24.626924 -10.43985,-36.537098 -1.5766,-3.400135 -3.03672,-6.793627 -4.38502,-10.2884767 z M 263.73341,147.99365 c -1.36785,1.87003 -2.69677,3.76853 -4.01132,5.67639 -3.91953,5.47336 -8.08518,10.40823 -12.71513,15.28844 -21.11377,20.84502 -21.11377,20.84502 -32.92313,45.63827 -1.14734,0.24585 -1.14734,0.24585 -2.31786,0.49668 -8.10415,1.95014 -14.98149,4.87145 -22.17639,8.99503 -5.12519,2.79721 -5.12519,2.79721 -8.50928,1.87054 -3.22161,-2.55133 -5.57759,-5.76548 -8.16929,-8.94032 -2.38976,-2.35317 -2.38976,-2.35317 -4.84386,-3.6329 -1.19886,0.39962 -2.39772,0.79923 -3.6329,1.21097 0.62441,0.74928 1.2488,1.49856 1.89213,2.27056 2.98127,6.48101 1.26527,12.76406 -0.32166,19.51736 -1.91712,4.44632 -4.66945,6.90419 -8.30647,9.92423 -22.9319,20.15687 -38.25774,49.75922 -40.85707,80.3666 -0.16176,4.32499 -0.20171,8.62566 -0.16438,12.95343 0.011,1.5335 0.0219,3.06699 0.0331,4.64697 0.6364,34.63513 14.93052,65.15461 39.24758,89.5056 1.54774,1.56881 1.54774,1.56881 3.12674,3.16931 25.79225,24.82552 59.74784,35.13952 94.9993,34.62132 33.03861,-1.04044 64.93233,-16.07034 87.79026,-39.70288 26.21054,-28.20935 38.2161,-62.29088 37.02314,-100.55388 -1.17403,-27.83485 -12.05786,-54.60417 -30.39594,-75.54579 -6.00999,-7.02931 -10.52133,-14.26181 -14.6191,-22.51965 -2.64687,-5.24194 -5.69723,-9.41341 -9.60021,-13.80932 -1.24923,3.74768 -1.18048,5.48121 -0.68117,9.3093 0.18498,1.46812 0.18498,1.46812 0.3737,2.96592 0.10149,0.7446 0.20293,1.4892 0.30747,2.25636 -0.95378,-0.61504 -1.90755,-1.23007 -2.89023,-1.86375 -11.98117,-7.57153 -24.12706,-14.21038 -37.89943,-17.94689 -1.38853,-0.384 -1.38853,-0.384 -2.8051,-0.77577 -1.21914,-0.26381 -2.43829,-0.52762 -3.69438,-0.79942 -4.73201,-2.14978 -6.09974,-5.18024 -8.11253,-9.72084 -0.35122,-0.72665 -0.70245,-1.45329 -1.06432,-2.20197 -4.27779,-9.09274 -5.70102,-17.03073 -5.59599,-26.93689 0.004,-1.06499 0.01,-2.12999 0.0142,-3.22726 0.10204,-7.68469 0.79234,-15.03867 2.71048,-22.50575 -0.39961,0 -0.79924,0 -1.21096,0 z"
     fill="#ea7124"
     id="path6"
     style="stroke-width:1.21096" />
  <path
     d="m 263.73341,147.99365 c 1.41592,4.24773 0.54098,6.35236 -0.5972,10.55574 -2.99625,13.49758 -1.59796,29.0813 4.2301,41.51577 0.46674,1.05993 0.93349,2.11985 1.41437,3.2119 2.69857,5.83044 2.69857,5.83044 8.04157,9.07751 2.40119,0.64071 4.80394,1.27565 7.20903,1.9016 14.33922,3.82889 28.38003,10.81325 40.25041,19.71602 -0.39963,-4.79542 -0.79924,-9.59084 -1.21097,-14.53158 6.58539,5.81064 10.72489,13.01888 14.6593,20.81819 3.02629,5.9324 6.75535,10.7571 11.1494,15.73783 6.83716,7.79897 11.84381,16.00051 16.57509,25.20322 0.56977,1.07709 1.13953,2.15419 1.72657,3.26393 6.53874,13.23942 11.2904,29.1456 11.59405,43.96372 0.0294,0.83904 0.059,1.67808 0.0893,2.54255 1.17078,35.51588 -8.74282,66.91427 -31.57438,94.33468 -1.44238,1.74443 -1.44238,1.74443 -2.91388,3.5241 -21.15025,24.41205 -52.15991,39.52774 -84.27563,42.49259 -35.76655,2.21802 -70.74197,-7.69614 -97.857,-31.56404 -20.40143,-18.62234 -34.34164,-39.63972 -41.40403,-66.52416 -0.30732,-1.1289 -0.61465,-2.25781 -0.93128,-3.42092 -2.53104,-9.96445 -3.31768,-19.31646 -3.23141,-29.57789 0.009,-1.53857 0.0184,-3.07714 0.0278,-4.66233 0.20805,-11.91007 1.52388,-22.52165 5.34587,-33.78582 0.25952,-0.769 0.51903,-1.53798 0.78641,-2.33028 7.48851,-21.64252 19.34487,-40.0582 36.8292,-54.88784 5.03072,-4.41442 7.58444,-7.48252 8.31593,-14.19573 0.0281,-0.81016 0.0562,-1.62033 0.0851,-2.45504 0.18732,-1.91067 0.18732,-1.91067 0.37842,-3.85995 -0.46189,-4.15703 -1.9496,-7.06362 -4.01132,-10.67164 5.18707,0.57634 7.45438,3.56947 10.89868,7.26579 1.12393,1.12393 2.24787,2.24786 3.40584,3.40585 1.31126,1.31124 1.31126,1.31124 2.64899,2.64899 5.23335,-1.63444 10.05401,-3.66661 14.9857,-6.05484 4.57093,-2.16792 8.7255,-3.98302 13.69905,-4.91954 1.32373,-0.37464 2.64748,-0.74928 4.01132,-1.13528 1.31737,-2.78707 1.31737,-2.78707 2.42194,-6.05483 5.92881,-10.78595 13.72215,-19.8704 21.79737,-29.06317 0.74928,-0.857 1.49857,-1.71399 2.27056,-2.59695 1.30445,-1.48947 2.61001,-2.97796 3.91672,-4.46543 3.10323,-3.55847 6.18477,-7.1346 9.25253,-10.72367 0.57211,-0.66265 1.14422,-1.3253 1.73367,-2.00803 3.16246,-3.71442 5.88372,-7.4274 8.25679,-11.69102 z m -107.24612,111.6075 c -22.88515,26.62598 -31.94702,58.3601 -29.59298,93.04566 2.1935,23.6609 12.30613,47.55142 27.85221,65.39214 1.23165,1.49388 1.23165,1.49388 2.48816,3.01794 18.19216,21.39078 42.95995,33.87632 70.16977,39.36584 1.14422,0.24039 2.28844,0.48079 3.46734,0.72848 17.37787,2.2074 34.41714,1.10352 51.02611,-4.36138 1.45174,-0.45268 2.90348,-0.90538 4.3992,-1.37179 28.9882,-9.62026 52.06227,-29.12899 67.04775,-55.54358 0.68216,-1.19417 1.36433,-2.38835 2.06716,-3.61871 13.62608,-25.49283 17.08251,-58.73761 10.72367,-86.97664 -9.96237,-31.74628 -30.67009,-59.23184 -60.01847,-75.30692 -8.91722,-4.65088 -18.20957,-8.07468 -27.85221,-10.89868 -1.81467,-0.54792 -1.81467,-0.54792 -3.66601,-1.1069 -42.73754,-11.08586 -88.20384,6.48051 -118.1117,37.63454 z"
     fill="#f7f5f3"
     id="path8"
     style="stroke-width:1.21096" />
  <path
     d="m 217.94379,280.14025 c 4.70394,3.13597 8.11233,6.8397 10.67163,11.95829 0.48739,5.75119 0.64193,9.21673 -2.5733,14.07747 -2.74063,3.8403 -2.74063,3.8403 -1.43152,7.48398 1.63023,3.98452 3.38209,7.85798 5.26308,11.73064 0.346,0.71544 0.692,1.43088 1.04848,2.168 1.09386,2.25948 2.1938,4.51592 3.29397,6.77233 0.7478,1.54189 1.4952,3.08397 2.24217,4.62626 1.82128,3.75815 3.64802,7.51361 5.47774,11.26766 3.19695,0 6.39389,0 9.68772,0 2.62769,-5.07576 5.23613,-10.16078 7.82723,-15.25532 0.88407,-1.73162 1.77334,-3.4606 2.66791,-5.18682 1.28515,-2.48216 2.5513,-4.97325 3.81411,-7.46683 0.40358,-0.76965 0.80716,-1.5393 1.22297,-2.33228 2.12373,-4.23375 2.12373,-4.23375 2.38599,-8.87506 -0.9665,-2.23346 -0.9665,-2.23346 -2.85683,-4.62982 -2.5857,-5.17141 -2.55137,-9.91689 -1.74077,-15.59118 2.82102,-5.85904 6.29853,-9.20408 12.10966,-12.10966 7.59957,-0.98059 13.09238,0.40958 19.37545,4.84387 4.3402,4.4487 5.17101,7.97102 5.37366,14.00179 -0.17298,5.33371 -1.22361,8.16694 -4.1627,12.63945 0.68732,7.9388 4.30814,14.63672 7.81393,21.65014 0.7439,1.50947 1.46703,3.02937 2.16886,4.55887 3.96333,9.26814 3.96333,9.26814 11.60025,15.1888 3.53516,0.65996 3.53516,0.65996 6.95063,0.73202 2.95144,0.25396 2.95144,0.25396 6.66002,3.20569 5.0048,6.61923 5.73413,10.68332 4.76817,18.84565 -1.57196,5.32324 -3.59317,8.73482 -8.02264,12.10965 -6.27399,1.85896 -12.59131,2.84548 -18.73212,0.0615 -4.34243,-2.91642 -7.70096,-6.00162 -9.5742,-10.96019 -1.11021,-8.27108 0.0159,-12.52292 4.84387,-19.37545 -0.38707,-5.55158 -2.15886,-9.65081 -4.77292,-14.51265 -0.70635,-1.33155 -1.41271,-2.66309 -2.14047,-4.03498 -1.11104,-2.05819 -1.11104,-2.05819 -2.24454,-4.15797 -1.46911,-2.7413 -2.93416,-5.48479 -4.39448,-8.23078 -0.65182,-1.20939 -1.30364,-2.41878 -1.97521,-3.66482 -1.42591,-2.93873 -1.42591,-2.93873 -1.42591,-5.36065 -4.12113,-0.74043 -7.06573,-0.53291 -10.89868,1.21096 -3.67607,4.77059 -6.19897,9.89316 -8.71594,15.34668 -1.19956,2.59229 -2.46133,5.14615 -3.73666,7.70187 -0.78986,1.63249 -1.57602,3.26676 -2.35807,4.903 -0.37564,0.76584 -0.75127,1.5317 -1.1383,2.32076 -1.97811,4.26506 -1.97811,4.26506 -1.36553,8.77512 0.77812,1.05207 0.77812,1.05207 1.57195,2.1254 3.77943,5.66914 3.12414,11.52854 2.42192,18.16448 -2.10536,4.61561 -3.89716,6.57308 -7.94695,9.53635 -7.46871,2.4443 -14.53607,2.7307 -21.7217,-0.60549 -5.42611,-5.1548 -6.8833,-9.51459 -7.1901,-16.87782 0.11992,-5.91627 1.52316,-8.14721 5.37366,-12.63946 -1.32946,-5.27473 -3.63464,-9.94976 -6.10213,-14.77756 -0.70245,-1.38618 -1.40491,-2.77235 -2.12865,-4.20053 -0.73738,-1.44462 -1.47531,-2.88894 -2.2138,-4.33299 -1.45935,-2.85439 -2.91216,-5.71178 -4.36136,-8.57136 -0.64412,-1.26013 -1.28823,-2.52025 -1.95186,-3.81857 -1.40669,-3.04988 -1.40669,-3.04988 -1.40669,-5.47181 -3.59635,0.0758 -6.30534,0.15547 -9.68771,1.21097 -2.30183,2.87692 -3.55229,4.88733 -5.0047,8.15982 -0.59283,1.23005 -0.59283,1.23005 -1.19763,2.48496 -0.82503,1.73147 -1.63216,3.47158 -2.42226,5.21927 -1.2138,2.67729 -2.48548,5.32049 -3.76889,7.96501 -0.79511,1.68784 -1.58677,3.37731 -2.37463,5.06854 -0.37943,0.79235 -0.75887,1.58468 -1.1498,2.40103 -1.99523,4.3675 -1.99523,4.3675 -1.39926,8.97631 0.77943,1.04388 0.77943,1.04388 1.57461,2.10885 3.60583,5.40873 3.16597,10.61107 2.42194,16.95351 -2.42484,4.84967 -5.06182,8.06346 -9.68773,10.89869 -4.92597,1.64199 -9.38097,1.85369 -14.53158,1.21096 -6.19727,-3.21339 -9.90215,-6.69806 -12.10966,-13.32061 -0.65665,-5.65151 -0.56897,-9.78183 2.0435,-14.91002 5.04293,-5.8607 5.04293,-5.8607 8.85519,-8.09833 1.91501,0.0708 3.82927,0.16304 5.74263,0.26963 3.30311,-0.13419 3.30311,-0.13419 6.36702,-1.48059 3.84372,-4.85461 6.10134,-10.37236 8.47676,-16.04529 0.67839,-1.5204 1.3611,-3.03886 2.04823,-4.55531 1.79227,-4.01208 3.52856,-8.03899 5.21756,-12.09547 0.51357,-1.07982 1.02715,-2.15965 1.55628,-3.27221 0.28567,-0.91827 0.57134,-1.83652 0.86566,-2.78262 -1.1974,-1.99564 -2.40068,-3.98836 -3.65182,-5.95075 -2.40467,-5.09561 -2.26399,-10.39892 -1.19204,-15.84662 5.57807,-10.09451 14.8419,-13.35356 25.65733,-9.53636 z"
     fill="#f8f7f5"
     id="path10"
     style="stroke-width:1.21096" />
  <path
     d="m 198.34128,63.22607 c 3.35546,0.44346 4.68105,1.044712 7.08605,3.500455 0.70869,0.942848 1.41739,1.885696 2.14757,2.857113 0.71493,0.930371 1.42988,1.86073 2.16648,2.819285 4.7495,7.252922 5.23559,13.823487 4.34245,22.308251 -1.98592,8.199016 -7.34718,14.530296 -12.67906,20.853086 -3.84697,4.68726 -5.39669,8.46735 -6.69639,14.26491 -5.92486,-5.45712 -8.52435,-9.29536 -8.85518,-17.33195 0.30301,-10.21812 5.06683,-17.415563 10.64325,-25.756659 4.13483,-6.562712 3.66517,-13.727247 2.45031,-21.168245 -0.1998,-0.774257 -0.39961,-1.548515 -0.60548,-2.346246 z"
     fill="#ef9d24"
     id="path12"
     style="stroke-width:1.21096" />
  <path
     d="m 234.67024,7.5216633 c 6.05483,1.2109652 6.05483,1.2109652 8.47676,3.6328967 -1.19886,0 -2.39772,0 -3.6329,0 1.59848,3.996186 3.19695,7.992372 4.84386,12.109655 -0.79923,0 -1.59847,0 -2.42192,0 -2.39772,-5.195042 -4.79542,-10.390084 -7.2658,-15.7425517 z"
     fill="#f0ae32"
     id="path14"
     style="stroke-width:1.21096" />
  <path
     d="m 382.40802,292.09854 c 0.39963,1.19885 0.79925,2.3977 1.21098,3.6329 1.59847,-0.79925 3.19694,-1.59848 4.84386,-2.42194 0,1.19886 0,2.39772 0,3.6329 -6.96305,3.6329 -6.96305,3.6329 -9.68773,3.6329 2.27056,-5.75209 2.27056,-5.75209 3.63289,-8.47676 z"
     fill="#efe3d8"
     id="path16"
     style="stroke-width:1.21096" />
  <path
     d="m 177.75487,219.44061 c 0.39962,1.19886 0.79923,2.39771 1.21096,3.6329 1.99809,0.39961 3.99619,0.79924 6.05483,1.21096 -0.39962,1.19886 -0.79923,2.39772 -1.21097,3.6329 -3.17499,-1.27 -4.59406,-1.99726 -6.35757,-4.99524 -0.29971,-0.74928 -0.59942,-1.49856 -0.90821,-2.27056 0.39961,-0.39962 0.79923,-0.79923 1.21096,-1.21096 z"
     fill="#e66627"
     id="path18"
     style="stroke-width:1.21096" />
  <path
     d="m 151.11362,120.14144 c 2.99715,1.19886 2.99715,1.19886 6.05484,2.42194 -0.79924,2.39771 -1.59847,4.79542 -2.42194,7.26579 -2.35545,-3.53317 -2.97021,-5.60117 -3.6329,-9.68773 z"
     fill="#ee995c"
     id="path20"
     style="stroke-width:1.21096" />
</svg>
